<svg width="73" height="24" viewBox="0 0 73 24" fill="none" xmlns="http://www.w3.org/2000/svg">
<g clip-path="url(#clip0_16_69)">
<path d="M71.4265 20.0398H57.3896C56.8514 20.0398 56.3338 19.7444 56.0439 19.2801C55.7541 18.8159 55.7334 18.2251 55.9818 17.7187L62.9381 3.85537C63.2073 3.32785 63.7249 2.99023 64.3253 2.99023H64.346C64.9257 2.99023 65.4432 3.30675 65.7331 3.83427L70.412 12.5912C70.8261 13.3719 70.5363 14.3425 69.7702 14.7645C69.0042 15.1866 68.0519 14.8912 67.6378 14.1315L64.3874 8.01225L59.9569 16.8535H71.4265C72.296 16.8535 73 17.571 73 18.4572C73 19.3223 72.296 20.0398 71.4265 20.0398Z" fill="#F0643C"/>
<path d="M33.5601 16.9796C30.9722 16.9585 29.2124 14.7007 29.2745 12.464C29.3366 10.2273 31.2206 8.11721 33.6429 8.20161C35.9203 8.18051 37.9492 10.2484 37.9078 12.6539C37.8664 15.0172 35.8996 17.0007 33.5601 16.9796ZM33.6636 4.90987C29.4609 4.74106 26.169 8.43372 26.0655 12.3163C25.962 16.1989 29.0468 20.1236 33.5394 20.1658C37.618 20.208 41.034 16.7475 41.0961 12.6539C41.179 8.47593 37.618 4.86767 33.6636 4.90987Z" fill="#333333"/>
<path d="M47.3071 4.82572V0.985352H44.0981V4.82572V4.84682H41.9449V8.09636H44.0981V12.5065C44.0981 16.6422 47.6177 20.1872 51.5306 20.145C51.5513 20.145 51.5927 20.145 51.6134 20.145V16.8532C51.5927 16.8532 51.5927 16.8532 51.572 16.8532C49.336 16.8743 47.3071 14.8698 47.3071 12.5065V8.09636H51.6134V4.84682L47.3071 4.82572Z" fill="#333333"/>
<path d="M19.9994 0.985352H16.7904V12.4854C16.7904 16.6211 20.31 20.1661 24.2229 20.1239C24.2436 20.1239 24.285 20.1239 24.3057 20.1239V16.8532C24.285 16.8532 24.285 16.8532 24.2643 16.8532C22.0284 16.8743 19.9994 14.8698 19.9994 12.5065V0.985352Z" fill="#333333"/>
<path d="M7.49461 16.9161C4.90669 16.895 3.14691 14.6372 3.20902 12.4005C3.27113 10.1638 5.15513 8.05373 7.57742 8.13814C9.85479 8.11704 11.8837 10.1849 11.8423 12.5904C11.8009 14.9537 9.83409 16.9372 7.49461 16.9161ZM7.59813 4.84639C3.39535 4.67759 0.103517 8.37025 0 12.2739C0 12.3583 0 12.4427 0 12.5271V23.9849H3.20902V18.7097C4.38911 19.5748 5.83834 20.1024 7.47391 20.1235C11.5525 20.1657 14.9685 16.7051 15.0306 12.6115C15.1134 8.41245 11.5525 4.80419 7.59813 4.84639Z" fill="#333333"/>
</g>
<defs>
<clipPath id="clip0_16_69">
<rect width="73" height="22.9996" fill="white" transform="translate(0 0.985352)"/>
</clipPath>
</defs>
</svg>
