<svg width="17" height="17" viewBox="0 0 17 17" fill="none" xmlns="http://www.w3.org/2000/svg">
<path d="M16.9974 9.95878L16.9974 16.2427L13.3549 16.2427L13.3549 10.3786C13.3549 8.90664 12.8279 7.90209 11.5089 7.90209C10.5027 7.90209 9.90268 8.57859 9.63922 9.23469C9.54404 9.46925 9.51854 9.7956 9.51854 10.122L9.51854 16.2427L5.8743 16.2427C5.8743 16.2427 5.92359 6.31283 5.8743 5.28449L9.51854 5.28449L9.51854 6.83635L9.49475 6.87205L9.51854 6.87205L9.51854 6.83635C10.003 6.08847 10.8664 5.02613 12.8024 5.02613C15.1991 5.02613 16.9974 6.59329 16.9974 9.95878ZM2.06178 -9.37992e-09C0.815875 -3.71176e-09 3.72723e-09 0.819275 8.61437e-09 1.89351C1.34087e-08 2.94735 0.792079 3.78872 2.01419 3.78872L2.03799 3.78872C3.30939 3.78872 4.09977 2.94565 4.09977 1.89351C4.07598 0.819275 3.30939 -1.50558e-08 2.06178 -9.37992e-09ZM0.215867 16.2427L3.86011 16.2427L3.86011 5.28449L0.215867 5.28449L0.215867 16.2427Z" fill="white"/>
</svg>
