<svg width="17" height="23" viewBox="0 0 17 23" fill="none" xmlns="http://www.w3.org/2000/svg">
<g clip-path="url(#clip0_480_1713)">
<path d="M7.2037 9.43359C7.12401 9.58184 6.08807 11.4281 4.10031 14.9814C3.88338 15.3543 3.62219 15.543 3.31672 15.543H0.434686C0.0938008 15.543 -0.100991 15.2061 0.0583841 14.8961L3.11307 9.44707C3.12193 9.44707 3.12193 9.44258 3.11307 9.43359L1.16958 6.0375C0.979217 5.68711 1.18286 5.4041 1.54588 5.4041H4.42792C4.75109 5.4041 5.01672 5.58828 5.22479 5.95215L7.2037 9.43359ZM16.9389 2.0709L10.5639 13.4361V13.4496L14.6191 20.9336C14.7917 21.2525 14.6279 21.567 14.2428 21.567H11.3563C11.0198 21.567 10.7542 21.3873 10.5594 21.0189L6.4688 13.4496C6.61489 13.1891 8.74875 9.3707 12.8792 1.98555C13.0829 1.62168 13.3396 1.4375 13.654 1.4375H16.5625C16.9167 1.4375 17.1071 1.73848 16.9389 2.0709Z" fill="#333333"/>
</g>
<defs>
<clipPath id="clip0_480_1713">
<rect width="17" height="23" fill="white"/>
</clipPath>
</defs>
</svg>
